<svg xmlns="http://www.w3.org/2000/svg" viewBox="0 0 79.58 80"><defs><style>.cls-1{fill:#eeeeee;}.cls-2{fill:#33333f;}.cls-3{fill:#33333f;stroke:#33333f;stroke-linecap:round;stroke-linejoin:round;stroke-width:0.6px;}</style></defs><title>Слой 1</title><g id="Слой_2" data-name="Слой 2"><g id="Слой_1-2" data-name="Слой 1"><rect class="cls-1" x="11.08" width="68.5" height="80"/><rect class="cls-2" width="11.39" height="80"/><path class="cls-3" d="M73.21,25.2A29,29,0,0,0,63.47,3.5a29.06,29.06,0,0,1,3.19,33,15.2,15.2,0,0,0-5.47-12.59A15.46,15.46,0,0,1,63,26.58a15.25,15.25,0,0,1-2.68,17.66,28.29,28.29,0,0,1-4.08,3,15.22,15.22,0,0,1-16.54-1.91,15.23,15.23,0,0,0,8.54,5.21,29.31,29.31,0,0,1-6.94.84A29,29,0,0,1,22,44,29,29,0,0,0,43.22,54.24,18.79,18.79,0,0,0,40,56.14L21.26,69.64A2.67,2.67,0,0,1,23,71.88c0,1.59-4.46,3.84-5,4.25s11-3,11-3,7.47,1.17,11,0S45,68.22,45,68.22s13.75-.5,8.17-12.08a5.2,5.2,0,0,0-2.85-2.55A29.06,29.06,0,0,0,73.21,25.2ZM42.78,58l-2.64,5.57a2.7,2.7,0,0,1-3.46,1.35l-3.32-1.35a.21.21,0,0,1,0-.37l9.21-5.4A.16.16,0,0,1,42.78,58Z"/></g></g></svg>