<svg xmlns="http://www.w3.org/2000/svg" viewBox="0 0 81.93 96.98"><defs><style>.cls-1{stroke:#000;stroke-miterlimit:10;stroke-width:0.87px;}</style></defs><title>Слой 1</title><g id="Слой_2" data-name="Слой 2"><g id="Слой_1-2" data-name="Слой 1"><g id="цитата"><g id="левая_половина_лица" data-name="левая половина лица"><path class="cls-1" d="M38.06,73.69l2.91.19V96.54s-3.38.53-3.41-6.12a5.8,5.8,0,0,1-2.07-7.17c-1.06-1.12-1.52-4.49.07-5.1-.56-.83-1.47-2.62-1.21-3.42A2,2,0,0,0,38.06,73.69Z"/><path class="cls-1" d="M37.36,82.54a.61.61,0,0,0,0-.51c-.32-.7-1.34-2.83-1.43-3a.39.39,0,0,0-.62-.12c-.17.21-.47,2.68.27,3.59s1,.77,1.17.71A1.26,1.26,0,0,0,37.36,82.54Z"/><path d="M38.4,76.2s1.16,1.7,1.91,1.81c-1.1,0-2.24-1.81-2.24-1.81Z"/><path d="M39.19,80.19c-.22.1,1,2.47,1.12,2.43S39.41,80.09,39.19,80.19Z"/><path class="cls-1" d="M41,83.21c-1.29,0-3.66,3.29-2.55,6"/><path class="cls-1" d="M37.41,82.15a16.24,16.24,0,0,1,2.77,7.49,3.94,3.94,0,0,0-1,2.44c0,.49.18,4.27,1.05,4.39s.76-1,.76-1V92.28a.27.27,0,0,0,0-.13c-.05-.2-.22-.75-.32-.75s-.14.12-.18.2-.05,0-.06,0-.12-.27-.2-.27-.13.11-.16.19-.05,0-.07,0-.11-.13-.18-.12-.16.21-.23.36a0,0,0,0,1-.07,0c0-.14,0-.29-.11-.29s-.2.53-.2.53"/><path class="cls-1" d="M39.87,92.07c-.59.15-.26,2.15-.26,2.15s.33,2.12.77,2.07.37-2.16.37-2.16S40.78,91.83,39.87,92.07Z"/><path class="cls-1" d="M36.82,87.87c-.2.19.1,1.23.66,1.62s.62,1.38.9,1.3.09-.73-.13-1.18S37.25,87.47,36.82,87.87Z"/><path class="cls-1" d="M37.26,79.18a1.67,1.67,0,0,0-1.7-1"/><path d="M37.5,82.8a5.06,5.06,0,0,1,1.25,2.09A1.93,1.93,0,0,1,38.22,86c-.21.13-.86.15-.9-.67a.7.7,0,0,1,.09-.4A2.43,2.43,0,0,0,37.5,82.8Z"/><path d="M40.21,89.66a4.71,4.71,0,0,0,0,1.66c-.13,0-.2.23-.2.23s-.14-.21-.21-.15-.2.41-.27.4,0-.35-.14-.35-.18.42-.18.42a3.88,3.88,0,0,1,1-2.21"/><path d="M41,90.17a2.8,2.8,0,0,0-.34,1.23c.17,0,.32.75.32.75l0-2"/></g><g id="правая_половина_лица" data-name="правая половина лица"><path class="cls-1" d="M43.89,73.69,41,73.88V96.54s3.38.53,3.41-6.12a5.8,5.8,0,0,0,2.07-7.17c1.06-1.12,1.52-4.49-.07-5.1.56-.83,1.48-2.62,1.21-3.42A2,2,0,0,1,43.89,73.69Z"/><path class="cls-1" d="M44.59,82.54a.61.61,0,0,1,0-.51c.32-.7,1.34-2.83,1.43-3a.39.39,0,0,1,.62-.12c.18.21.47,2.68-.27,3.59s-1,.77-1.17.71A1.26,1.26,0,0,1,44.59,82.54Z"/><path d="M43.55,76.2S42.39,77.9,41.64,78c1.1,0,2.24-1.81,2.24-1.81Z"/><path d="M42.76,80.19c.22.1-1,2.47-1.12,2.43S42.54,80.09,42.76,80.19Z"/><path class="cls-1" d="M41,83.21c1.29,0,3.66,3.29,2.55,6"/><path class="cls-1" d="M44.54,82.15a16.24,16.24,0,0,0-2.77,7.49,3.88,3.88,0,0,1,1,2.44c0,.49-.18,4.27-1,4.39s-.76-1-.76-1V92.28a.51.51,0,0,1,0-.13c0-.2.22-.75.32-.75s.14.12.18.2,0,0,.06,0,.12-.27.2-.27.13.11.16.19,0,0,.07,0,.11-.13.18-.12.17.21.23.36a0,0,0,0,0,.07,0c0-.14,0-.29.11-.29s.2.53.2.53"/><path class="cls-1" d="M42.08,92.07c.59.15.26,2.15.26,2.15s-.33,2.12-.77,2.07-.37-2.16-.37-2.16S41.17,91.83,42.08,92.07Z"/><path class="cls-1" d="M45.13,87.87c.21.19-.1,1.23-.66,1.62s-.62,1.38-.9,1.3-.09-.73.13-1.18S44.7,87.47,45.13,87.87Z"/><path class="cls-1" d="M44.69,79.18a1.67,1.67,0,0,1,1.7-1"/><path d="M44.45,82.8a5.06,5.06,0,0,0-1.25,2.09A1.93,1.93,0,0,0,43.73,86c.21.13.86.15.9-.67a.7.7,0,0,0-.09-.4A2.43,2.43,0,0,1,44.45,82.8Z"/><path d="M41.74,89.66a4.71,4.71,0,0,1,0,1.66c.13,0,.2.23.2.23s.14-.21.21-.15.2.41.27.4,0-.35.14-.35.18.42.18.42a3.88,3.88,0,0,0-1-2.21"/><path d="M41,90.17a2.8,2.8,0,0,1,.34,1.23c-.16,0-.32.75-.32.75l0-2"/></g><g id="правый_рог" data-name="правый рог"><path class="cls-1" d="M43.89,73.69A6,6,0,0,1,46.53,70a2.15,2.15,0,0,1,.63-.22c.9-.16,1.43-.09,2.1-.21a4.89,4.89,0,0,0,3.8-4.87.09.09,0,0,1,.12-.1c.51.17.89,1.58,0,4.36a.64.64,0,0,0,0,.43c.21.47.51.53,1.54.53a6.05,6.05,0,0,0,2.83-.39c.79-.4,2.8-1.88,3-8.59a.07.07,0,0,1,.12,0c.46.44.48,3.17.22,4.5a.07.07,0,0,0,.13.05,14.14,14.14,0,0,0,2.35-6.19.07.07,0,0,1,.12-.05c.44.33.4,3.4-3.14,10a.7.7,0,0,0,.33,1,3,3,0,0,0,1.64-.3,23.36,23.36,0,0,0,3.54-4.11,1.09,1.09,0,0,0,.1-.32c.26-2,1.54-8.25,4.85-9.48a.11.11,0,0,1,.15.11c-.08.87-3.55,3.42-2.38,7.7a.27.27,0,0,0,.31.19c1.13-.28,4.88-3.54,7.44-10.31a.07.07,0,0,1,.12,0c.54.81-1.31,9.7-7.71,13.21a.05.05,0,0,1,0,0c-.9.43-3.69,3.18-3.73,3.83s8.12.71,11.87-2.73c1.66-1.58,2.63-3,2.85-4.63a.61.61,0,0,0,0-.33c-.71-1.64-1.73-5.42-1.35-5.5s1.37,3.53,1.63,3.53.92-3.7.41-8.5a.09.09,0,0,1,.13-.08c.6.37,1.52,4.13.68,10.78-.7,4.2-2.58,7.33-6.65,8.83a20.31,20.31,0,0,1-9.62,1.2c-2.74-.22-5.12-.8-7.9-.76s-8.34-.61-9.33,2a2,2,0,0,1-2.29,1.07A2.3,2.3,0,0,1,43.89,73.69Z"/><path d="M43.89,73.69A6,6,0,0,1,46.53,70a2.15,2.15,0,0,1,.63-.22c.9-.16,1.43-.09,2.1-.21a4.89,4.89,0,0,0,3.8-4.87c0-.07.11-.16.12-.1.12.56.12,1.25-.83,4-.17.47-.66.9.19,1a11.63,11.63,0,0,0,2.14.29,6.05,6.05,0,0,0,2.83-.39c.79-.4,2.8-1.88,3-8.59,0-.06.1-.11.12,0,.19.7-.28,3.24-.28,4.59,0,.24.35.34.63,0a13.84,13.84,0,0,0,2.35-6.19c0-.06.1-.1.12-.05s.36,2.77-3.45,8.25c-1.26,1.83-.33,2.78-.1,2.87a3.25,3.25,0,0,0,2.38-.39,23.36,23.36,0,0,0,3.54-4.11,1.09,1.09,0,0,0,.1-.32c.26-2,1.54-8.25,4.85-9.48.08,0,.22.07.15.11-1.23.62-4.71,4-3.69,8.33.07.33.66.22,1,.14,1.14-.25,5.49-4.12,8-10.89a.07.07,0,0,1,.12,0c.54.81-1.83,8-8.23,11.51h0c-.9.43-5.24,4.76-5.28,5.42s10.15.84,13.9-2.6c1.66-1.58,2.63-3,2.85-4.63a.61.61,0,0,0,0-.33c-1.4-3.71-1.64-5.69-1.43-5.36s1.09,4.59,1.67,4.62,1-4.93.45-9.73c0-.07.12-.15.13-.08.32,2.39.48,3,0,9.06-.7,4.2-2,6.89-6,8.39a21.36,21.36,0,0,1-9.71,1.46c-2.74-.22-7.21-1.41-10-1.15A8,8,0,0,1,51.82,70c-1.4,0-2.63-.59-5,.37C45.19,71.07,44.14,74.94,43.89,73.69Z"/></g><g id="левый_рог" data-name="левый рог"><path class="cls-1" d="M38,73.7A5.92,5.92,0,0,0,35.39,70a2,2,0,0,0-.63-.22c-.89-.17-1.42-.09-2.09-.21a4.9,4.9,0,0,1-3.8-4.88.09.09,0,0,0-.12-.09c-.51.17-.9,1.58.05,4.36a.61.61,0,0,1,0,.42c-.2.47-.51.54-1.54.53a6.18,6.18,0,0,1-2.82-.38c-.79-.4-2.81-1.89-3.05-8.59a.07.07,0,0,0-.11,0c-.47.43-.48,3.17-.22,4.5a.07.07,0,0,1-.13,0,14.19,14.19,0,0,1-2.35-6.19.08.08,0,0,0-.13,0c-.43.32-.39,3.4,3.14,10a.69.69,0,0,1-.32,1,3,3,0,0,1-1.64-.31,23.24,23.24,0,0,1-3.54-4.1.92.92,0,0,1-.1-.32c-.27-2-1.54-8.26-4.85-9.48a.11.11,0,0,0-.15.11c.07.87,3.55,3.41,2.38,7.7A.26.26,0,0,1,13,64c-1.13-.28-4.87-3.54-7.43-10.3a.07.07,0,0,0-.12,0c-.54.82,1.31,9.71,7.71,13.22l0,0c.91.43,3.69,3.17,3.74,3.83S8.83,71.44,5.08,68a8,8,0,0,1-2.84-4.63.63.63,0,0,1,0-.33C3,61.39,4,57.62,3.63,57.53S2.26,61.06,2,61.06s-.91-3.69-.41-8.49a.08.08,0,0,0-.12-.09c-.61.38-1.53,4.13-.69,10.79.71,4.19,2.59,7.33,6.65,8.83a20.35,20.35,0,0,0,9.63,1.2c2.73-.22,5.12-.8,7.9-.76s8.33-.62,9.33,1.94a2,2,0,0,0,2.28,1.07A2.25,2.25,0,0,0,38,73.7Z"/><path d="M38,73.7A5.92,5.92,0,0,0,35.39,70a2,2,0,0,0-.63-.22c-.89-.17-1.42-.09-2.09-.21a4.9,4.9,0,0,1-3.8-4.88c0-.06-.11-.16-.12-.09-.12.56-.12,1.25.83,4,.16.47.66.9-.19,1a11.9,11.9,0,0,1-2.15.28,6.18,6.18,0,0,1-2.82-.38c-.79-.4-2.81-1.89-3.05-8.59,0-.06-.09-.11-.11,0-.19.7.27,3.24.27,4.59,0,.23-.34.34-.62,0a13.84,13.84,0,0,1-2.35-6.19c0-.06-.1-.11-.13,0s-.35,2.76,3.46,8.25c1.26,1.83.33,2.77.1,2.87a3.24,3.24,0,0,1-2.38-.4,23.24,23.24,0,0,1-3.54-4.1.92.92,0,0,1-.1-.32c-.27-2-1.54-8.26-4.85-9.48-.08,0-.23.07-.15.11,1.22.62,4.71,4,3.69,8.32-.08.34-.66.22-1,.15-1.14-.26-5.49-4.13-8-10.89a.07.07,0,0,0-.12,0c-.54.82,1.83,8,8.23,11.51,0,0,0,0,0,0,.9.43,5.23,4.77,5.28,5.43S8.83,71.44,5.08,68a8,8,0,0,1-2.84-4.63.63.63,0,0,1,0-.33c1.4-3.7,1.64-5.68,1.42-5.35S2.62,62.27,2,62.3s-1-4.93-.46-9.73c0-.07-.11-.16-.12-.09-.33,2.39-.49,3,0,9.07.71,4.19,2,6.89,6.05,8.39a21.32,21.32,0,0,0,9.71,1.45c2.74-.22,7.21-1.41,10-1.14A8.21,8.21,0,0,0,30.11,70c1.4,0,2.63-.59,5,.37C36.73,71.07,37.79,75,38,73.7Z"/></g><path d="M42.78,23.65,5.52,0,5.16,45.64,40.77,68.23l1.67-1ZM8.66,43.74,9,6.33,39.28,25.56,39,63Z"/><path d="M76.34,0,39.06,23.65V67.07l1.77,1.11L76.34,45.65ZM72.86,43.73,42.55,63V25.56L72.86,6.34Z"/></g></g></g></svg>