<svg xmlns="http://www.w3.org/2000/svg" viewBox="0 0 82.93 103.79"><defs><style>.cls-1{stroke:#000;stroke-miterlimit:10;stroke-width:0.89px;}.cls-2{font-size:70.55px;font-family:Oswald-Light, Oswald;font-weight:300;}</style></defs><title>Слой 1</title><g id="Слой_2" data-name="Слой 2"><g id="Слой_1-2" data-name="Слой 1"><g id="левая_половина_лица" data-name="левая половина лица"><path class="cls-1" d="M38.52,80.21l2.95.19v22.94s-3.42.53-3.45-6.2a5.88,5.88,0,0,1-2.1-7.26c-1.07-1.13-1.54-4.53.07-5.16-.56-.83-1.49-2.65-1.22-3.45C35.34,82.07,37.87,83.13,38.52,80.21Z"/><path class="cls-1" d="M37.82,89.17a.63.63,0,0,0,0-.52c-.32-.71-1.36-2.86-1.45-3a.4.4,0,0,0-.63-.12c-.17.2-.47,2.71.27,3.63s1,.77,1.19.71A1.23,1.23,0,0,0,37.82,89.17Z"/><path d="M38.87,82.76S40,84.47,40.8,84.59c-1.11,0-2.26-1.83-2.26-1.83Z"/><path d="M39.67,86.79c-.22.11,1,2.5,1.13,2.46S39.89,86.69,39.67,86.79Z"/><path class="cls-1" d="M41.47,89.85c-1.31,0-3.7,3.33-2.58,6"/><path class="cls-1" d="M37.86,88.77a16.41,16.41,0,0,1,2.81,7.58,4.05,4.05,0,0,0-1,2.48c0,.49.18,4.31,1.06,4.43s.77-1,.77-1V99a.34.34,0,0,0,0-.14c-.05-.19-.22-.76-.32-.75s-.14.12-.19.2a0,0,0,0,1-.06,0c0-.1-.11-.28-.2-.28s-.13.11-.16.19a0,0,0,0,1-.07,0c0-.06-.11-.13-.18-.12s-.17.2-.23.36a0,0,0,0,1-.08,0c0-.14,0-.3-.11-.3s-.2.54-.2.54"/><path class="cls-1" d="M40.36,98.81c-.6.16-.27,2.18-.27,2.18s.34,2.15.79,2.09.37-2.18.37-2.18S41.28,98.57,40.36,98.81Z"/><path class="cls-1" d="M37.27,94.57c-.21.19.1,1.24.67,1.63s.63,1.4.91,1.31.09-.73-.13-1.19S37.71,94.16,37.27,94.57Z"/><path class="cls-1" d="M37.72,85.76a1.7,1.7,0,0,0-1.73-1"/><path d="M38,89.43a5.05,5.05,0,0,1,1.26,2.11,2,2,0,0,1-.53,1.11c-.21.13-.87.15-.91-.68a.78.78,0,0,1,.08-.4A2.43,2.43,0,0,0,38,89.43Z"/><path d="M40.7,96.38a4.83,4.83,0,0,0,0,1.68c-.13,0-.2.23-.2.23s-.14-.21-.21-.16-.2.42-.28.41,0-.35-.14-.35-.18.42-.18.42a3.91,3.91,0,0,1,1-2.23"/><path d="M41.47,96.89a2.87,2.87,0,0,0-.34,1.25c.16,0,.32.75.32.75l0-2"/></g><g id="правая_половина_лица" data-name="правая половина лица"><path class="cls-1" d="M44.43,80.21l-3,.19v22.94s3.43.53,3.46-6.2A5.87,5.87,0,0,0,47,89.88c1.07-1.13,1.54-4.53-.07-5.16.57-.83,1.49-2.65,1.22-3.45A2.07,2.07,0,0,1,44.43,80.21Z"/><path class="cls-1" d="M45.13,89.17a.72.72,0,0,1,0-.52c.33-.71,1.37-2.86,1.45-3a.4.4,0,0,1,.63-.12c.18.2.48,2.71-.27,3.63s-1,.77-1.19.71A1.27,1.27,0,0,1,45.13,89.17Z"/><path d="M44.09,82.76s-1.18,1.71-1.94,1.83c1.12,0,2.26-1.83,2.26-1.83Z"/><path d="M43.28,86.79c.23.11-1,2.5-1.13,2.46S43.06,86.69,43.28,86.79Z"/><path class="cls-1" d="M41.48,89.85c1.31,0,3.71,3.33,2.58,6"/><path class="cls-1" d="M45.09,88.77a16.33,16.33,0,0,0-2.8,7.58,4,4,0,0,1,1,2.48c0,.49-.18,4.31-1.06,4.43s-.77-1-.77-1V99a.68.68,0,0,1,0-.14c.06-.19.23-.76.32-.75s.15.12.19.2a0,0,0,0,0,.06,0c0-.1.12-.28.2-.28s.14.11.17.19a0,0,0,0,0,.07,0c0-.06.1-.13.18-.12s.16.2.23.36a0,0,0,0,0,.07,0c0-.14,0-.3.11-.3s.2.54.2.54"/><path class="cls-1" d="M42.6,98.81c.59.16.26,2.18.26,2.18s-.34,2.15-.78,2.09-.37-2.18-.37-2.18S41.67,98.57,42.6,98.81Z"/><path class="cls-1" d="M45.68,94.57c.21.19-.1,1.24-.67,1.63-.42.33-.63,1.4-.91,1.31s-.09-.73.14-1.19S45.25,94.16,45.68,94.57Z"/><path class="cls-1" d="M45.23,85.76a1.7,1.7,0,0,1,1.73-1"/><path d="M45,89.43a5.06,5.06,0,0,0-1.27,2.11,2,2,0,0,0,.54,1.11c.21.13.87.15.91-.68a.78.78,0,0,0-.09-.4A2.45,2.45,0,0,1,45,89.43Z"/><path d="M42.26,96.38s.21,1.4,0,1.68c.13,0,.21.23.21.23s.14-.21.21-.16.2.42.27.41,0-.35.14-.35.18.42.18.42a3.91,3.91,0,0,0-1-2.23"/><path d="M41.48,96.89a2.73,2.73,0,0,1,.34,1.25c-.16,0-.32.75-.32.75l0-2"/></g><g id="правый_рог" data-name="правый рог"><path class="cls-1" d="M44.43,80.21a6,6,0,0,1,2.67-3.77,2.45,2.45,0,0,1,.64-.23c.91-.16,1.44-.09,2.12-.21a4.94,4.94,0,0,0,3.85-4.93.09.09,0,0,1,.12-.1c.51.17.9,1.6,0,4.42a.55.55,0,0,0,0,.42c.21.48.52.55,1.56.54A6.19,6.19,0,0,0,58.21,76c.8-.4,2.84-1.91,3.08-8.69a.07.07,0,0,1,.12,0c.47.44.49,3.21.22,4.55a.07.07,0,0,0,.13.06,14.34,14.34,0,0,0,2.38-6.27.08.08,0,0,1,.13,0c.44.32.39,3.44-3.18,10.11a.7.7,0,0,0,.33,1,3,3,0,0,0,1.66-.31,23.87,23.87,0,0,0,3.58-4.15.75.75,0,0,0,.1-.32c.27-2,1.56-8.36,4.91-9.6a.12.12,0,0,1,.16.11c-.08.88-3.6,3.46-2.41,7.79a.25.25,0,0,0,.31.19c1.15-.28,4.93-3.58,7.53-10.43a.07.07,0,0,1,.12,0c.55.82-1.32,9.82-7.8,13.37l0,0c-.92.44-3.73,3.22-3.78,3.88s8.22.72,12-2.77a8.2,8.2,0,0,0,2.88-4.69.62.62,0,0,0,0-.33c-.72-1.66-1.75-5.48-1.37-5.57s1.39,3.58,1.66,3.58.93-3.74.41-8.6a.09.09,0,0,1,.13-.09c.61.38,1.54,4.18.69,10.92-.71,4.24-2.62,7.42-6.73,8.94a20.71,20.71,0,0,1-9.74,1.21c-2.77-.23-5.18-.81-8-.77s-8.44-.62-9.45,2a2,2,0,0,1-2.31,1.08A2.29,2.29,0,0,1,44.43,80.21Z"/><path d="M44.43,80.21a6,6,0,0,1,2.67-3.77,2.45,2.45,0,0,1,.64-.23c.91-.16,1.44-.09,2.12-.21a4.94,4.94,0,0,0,3.85-4.93c0-.07.11-.16.12-.1.12.57.12,1.27-.85,4.08-.16.48-.66.91.2,1a11.18,11.18,0,0,0,2.17.29A6.19,6.19,0,0,0,58.21,76c.8-.4,2.84-1.91,3.08-8.69,0-.06.1-.11.12,0,.19.71-.28,3.27-.28,4.64,0,.24.35.35.63,0a14,14,0,0,0,2.38-6.27c0-.06.1-.11.13,0s.35,2.8-3.5,8.35c-1.28,1.85-.33,2.81-.1,2.9a3.23,3.23,0,0,0,2.41-.4,23.87,23.87,0,0,0,3.58-4.15.75.75,0,0,0,.1-.32c.27-2,1.56-8.36,4.91-9.6.08,0,.23.07.16.11-1.25.63-4.77,4.05-3.74,8.43.08.33.67.22,1,.14,1.15-.25,5.55-4.17,8.15-11a.07.07,0,0,1,.12,0c.55.82-1.85,8.09-8.33,11.65h0c-.91.43-5.3,4.82-5.34,5.49s10.27.85,14.07-2.64a8.2,8.2,0,0,0,2.88-4.69.63.63,0,0,0,0-.33C79.2,65.67,79,63.67,79.18,64s1.09,4.65,1.68,4.68c.44,0,1-5,.46-9.85,0-.07.12-.16.13-.09.33,2.42.49,3.06,0,9.18-.71,4.24-2,7-6.12,8.49a21.61,21.61,0,0,1-9.83,1.47c-2.77-.22-7.29-1.43-10.09-1.16a8.2,8.2,0,0,1-2.95-.24c-1.42,0-2.66-.6-5,.37C45.75,77.56,44.68,81.48,44.43,80.21Z"/></g><g id="левый_рог" data-name="левый рог"><path class="cls-1" d="M38.5,80.22a6,6,0,0,0-2.67-3.78,2.11,2.11,0,0,0-.64-.22c-.91-.17-1.44-.09-2.12-.21a5,5,0,0,1-3.85-4.93.09.09,0,0,0-.12-.1c-.51.17-.9,1.6,0,4.41a.58.58,0,0,1,0,.43c-.21.48-.52.55-1.56.54A6.19,6.19,0,0,1,24.72,76c-.8-.4-2.84-1.91-3.08-8.7a.07.07,0,0,0-.12,0c-.47.44-.49,3.21-.22,4.56,0,.07-.09.12-.13,0a14.23,14.23,0,0,1-2.38-6.26.09.09,0,0,0-.13-.06c-.44.33-.39,3.44,3.18,10.11a.71.71,0,0,1-.33,1.06,3.09,3.09,0,0,1-1.66-.31,23.87,23.87,0,0,1-3.58-4.15.75.75,0,0,1-.1-.33c-.27-2-1.56-8.35-4.91-9.6a.12.12,0,0,0-.16.11c.08.89,3.6,3.46,2.41,7.8a.26.26,0,0,1-.31.19C12.05,70.1,8.27,66.8,5.67,60a.07.07,0,0,0-.12,0c-.55.83,1.32,9.83,7.8,13.38l0,0c.92.43,3.73,3.21,3.78,3.88s-8.22.71-12-2.77a8.26,8.26,0,0,1-2.88-4.69.62.62,0,0,1,0-.33C3,67.77,4.06,64,3.68,63.86S2.29,67.43,2,67.43s-.93-3.74-.41-8.6a.08.08,0,0,0-.13-.08c-.61.38-1.54,4.18-.69,10.92.71,4.24,2.62,7.41,6.73,8.93a20.45,20.45,0,0,0,9.74,1.21c2.77-.22,5.18-.81,8-.76s8.44-.63,9.45,2A2,2,0,0,0,37,82.1,2.32,2.32,0,0,0,38.5,80.22Z"/><path d="M38.5,80.22a6,6,0,0,0-2.67-3.78,2.11,2.11,0,0,0-.64-.22c-.91-.17-1.44-.09-2.12-.21a5,5,0,0,1-3.85-4.93c0-.07-.11-.17-.12-.1-.12.56-.12,1.27.85,4.08.16.47.66.91-.2,1a11.18,11.18,0,0,1-2.17.29A6.19,6.19,0,0,1,24.72,76c-.8-.4-2.84-1.91-3.08-8.7,0-.06-.1-.1-.12,0-.19.71.28,3.28.28,4.65,0,.24-.35.34-.63,0a13.93,13.93,0,0,1-2.38-6.26c0-.06-.1-.11-.13-.06s-.35,2.8,3.5,8.36c1.28,1.84.33,2.8.1,2.9a3.32,3.32,0,0,1-2.41-.4,23.87,23.87,0,0,1-3.58-4.15.75.75,0,0,1-.1-.33c-.27-2-1.56-8.35-4.91-9.6-.08,0-.23.08-.16.11,1.25.63,4.77,4.06,3.74,8.43-.08.34-.67.23-1,.15-1.15-.26-5.55-4.18-8.15-11a.07.07,0,0,0-.12,0C5,60.77,7.4,68,13.88,71.59h0c.91.44,5.3,4.83,5.34,5.49S9,77.93,5.15,74.45a8.26,8.26,0,0,1-2.88-4.69.62.62,0,0,1,0-.33C3.73,65.68,4,63.67,3.75,64s-1.09,4.64-1.68,4.67c-.44,0-1-5-.46-9.85,0-.07-.12-.15-.13-.08-.33,2.42-.49,3,0,9.17.71,4.25,2,7,6.12,8.49a21.64,21.64,0,0,0,9.83,1.48c2.77-.23,7.29-1.43,10.09-1.16a8.44,8.44,0,0,0,2.95-.24c1.42,0,2.66-.6,5,.37C37.18,77.56,38.25,81.48,38.5,80.22Z"/></g><text class="cls-2" transform="translate(3.72 63.85)">&lt;/&gt;</text></g></g></svg>