<?xml version="1.0" encoding="utf-8"?>
<!-- Generator: Adobe Illustrator 23.0.1, SVG Export Plug-In . SVG Version: 6.00 Build 0)  -->
<svg version="1.1" id="Слой_1" xmlns="http://www.w3.org/2000/svg" xmlns:xlink="http://www.w3.org/1999/xlink" x="0px" y="0px"
	 viewBox="0 0 100 100" style="enable-background:new 0 0 100 100;" xml:space="preserve">
<style type="text/css">
	.st0{fill-rule:evenodd;clip-rule:evenodd;fill:#33333F;stroke:#33333F;stroke-miterlimit:10;}
	.st1{fill:#33333F;stroke:#33333F;stroke-width:1.6523;stroke-miterlimit:22.93;}
	.st2{fill:#33333F;stroke:#33333F;stroke-miterlimit:10;}
	.st3{clip-path:url(#SVGID_4_);}
	.st4{fill:#33333F;stroke:#33333F;stroke-width:1.3753;stroke-miterlimit:22.93;}
	.st5{clip-path:url(#SVGID_8_);}
	.st6{clip-path:url(#SVGID_10_);}
	.st7{clip-path:url(#SVGID_12_);}
	.st8{fill:#33333F;stroke:#33333F;stroke-width:0.277;stroke-miterlimit:22.93;}
</style>
<g>
	
		<image style="overflow:visible;opacity:0.55;enable-background:new    ;" width="164" height="214" xlink:href="FC9532BC.png"  transform="matrix(0.4849 0 0 0.4849 10.8467 0.1171)">
	</image>
	<path class="st0" d="M29,46.4c-8.4,1.1-14.7,8.7-13.6,17.9c1.1,8.5,9,14.6,17.9,13.4c8.6-1.1,14.7-9,13.6-17.6c0-0.1,0-0.2,0-0.2
		C45.6,51.2,37.7,45.2,29,46.4z"/>
	<path class="st1" d="M29,46.4c-8.4,1.1-14.7,8.7-13.6,17.9c1.1,8.5,9,14.6,17.9,13.4c8.6-1.1,14.7-9,13.6-17.6c0-0.1,0-0.2,0-0.2
		C45.6,51.2,37.7,45.2,29,46.4z"/>
	<path class="st0" d="M52.3,93.3c1.6-3.8,4.7-13,6.7-18.1c1.3,0.6,2.6,1.9,6.2,2.4c6.8,1,13.3-2,16.4-7.7c4.5-8,1.7-17.7-6.6-22
		c-9.4-4.9-18.7,0.8-21.7,7.5c-1.9,4.2-1.4,9.9-1.3,14.9C52.1,75.9,52.2,87.9,52.3,93.3"/>
	<path class="st2" d="M56.5,84.4c-1.3,3.7-2.6,7.2-3.5,9.2l-1.5,3.5v-3.8c0-1.7,0-4.2-0.1-6.9c-0.1-5.6-0.1-12.3-0.2-16
		c0-0.8,0-1.7,0-2.5c-0.1-4.4-0.2-9,1.4-12.7c0.1-0.2,0.2-0.5,0.4-0.8c1.9-3.5,4.9-6.2,8.5-7.8c4.1-1.8,8.8-1.7,12.9,0.1
		c0.3,0.1,0.6,0.3,1,0.5c0.2,0.1,0.3,0.2,0.5,0.3c3.8,2.1,6.7,5.6,8,9.8c1.2,4.2,0.7,8.7-1.3,12.5c-0.1,0.2-0.2,0.3-0.3,0.5
		c-1.6,2.9-4.2,5.3-7.2,6.7c-3.1,1.4-6.6,1.9-10,1.4c-2-0.2-3.8-0.9-5.5-2l-0.1-0.1C58.6,78.7,57.5,81.6,56.5,84.4 M53.1,89.1
		c0.6-1.6,1.2-3.4,1.9-5.2c1.1-3.2,2.3-6.5,3.3-9l0.3-0.8l0.8,0.4c0.3,0.2,0.7,0.4,1,0.6c1.5,0.9,3.1,1.5,4.9,1.8
		c3.1,0.5,6.3,0,9.1-1.3c2.7-1.3,5-3.4,6.5-6c0.1-0.1,0.2-0.3,0.3-0.5c1.8-3.5,2.3-7.5,1.2-11.3c-1.1-3.8-3.7-6.9-7.2-8.8
		c-0.1-0.1-0.3-0.2-0.5-0.3c-0.3-0.2-0.6-0.3-0.9-0.4c-3.7-1.7-7.9-1.7-11.6-0.1c-3.3,1.4-6,3.9-7.7,7c-0.1,0.2-0.2,0.4-0.3,0.7
		c-1.5,3.4-1.4,7.8-1.3,12c0,0.9,0,1.7,0,2.6c0,3.7,0.1,10.4,0.2,16V89.1z"/>
	<g>
		<g>
			<g>
				<path id="SVGID_1_" class="st2" d="M30,49.4c-5.7,0.8-9.6,6-8.8,11.7c0.8,5.7,6,9.6,11.7,8.8s9.6-6,8.8-11.7l0,0
					C40.8,52.6,35.6,48.6,30,49.4L30,49.4"/>
			</g>
			<g>
				<defs>
					<path id="SVGID_2_" d="M30,49.4c-5.7,0.8-9.6,6-8.8,11.7c0.8,5.7,6,9.6,11.7,8.8s9.6-6,8.8-11.7l0,0
						C40.8,52.6,35.6,48.6,30,49.4L30,49.4"/>
				</defs>
				<use xlink:href="#SVGID_2_"  style="overflow:visible;fill:#33333F;"/>
				<clipPath id="SVGID_4_">
					<use xlink:href="#SVGID_2_"  style="overflow:visible;"/>
				</clipPath>
				<g class="st3">
					<rect x="20.3" y="48.6" class="st2" width="22.1" height="22"/>
				</g>
				<use xlink:href="#SVGID_2_"  style="overflow:visible;fill:none;stroke:#33333F;stroke-miterlimit:10;"/>
			</g>
			<g>
				<path class="st2" d="M30,49.4c-5.7,0.8-9.6,6-8.8,11.7c0.8,5.7,6,9.6,11.7,8.8s9.6-6,8.8-11.7l0,0C40.8,52.6,35.6,48.6,30,49.4
					L30,49.4"/>
			</g>
		</g>
	</g>
	<path class="st4" d="M30,49.4c-5.7,0.8-9.6,6-8.8,11.7c0.8,5.7,6,9.6,11.7,8.8s9.6-6,8.8-11.7l0,0C40.8,52.6,35.6,48.6,30,49.4
		L30,49.4z"/>
	<g>
		<g>
			<g>
				<path id="SVGID_3_" class="st2" d="M66.2,49.4c-5.7,0.8-9.6,6-8.8,11.6c0.8,5.7,6,9.6,11.6,8.8c5.7-0.8,9.6-6,8.8-11.6l0,0
					C77.1,52.6,71.9,48.6,66.2,49.4"/>
			</g>
			<g>
				<defs>
					<path id="SVGID_6_" d="M66.2,49.4c-5.7,0.8-9.6,6-8.8,11.6c0.8,5.7,6,9.6,11.6,8.8c5.7-0.8,9.6-6,8.8-11.6l0,0
						C77.1,52.6,71.9,48.6,66.2,49.4"/>
				</defs>
				<use xlink:href="#SVGID_6_"  style="overflow:visible;fill:#33333F;"/>
				<clipPath id="SVGID_8_">
					<use xlink:href="#SVGID_6_"  style="overflow:visible;"/>
				</clipPath>
				<g class="st5">
					<rect x="56.6" y="48.6" class="st2" width="22.1" height="22"/>
				</g>
				<use xlink:href="#SVGID_6_"  style="overflow:visible;fill:none;stroke:#33333F;stroke-miterlimit:10;"/>
			</g>
			<g>
				<path class="st2" d="M66.2,49.4c-5.7,0.8-9.6,6-8.8,11.6c0.8,5.7,6,9.6,11.6,8.8c5.7-0.8,9.6-6,8.8-11.6l0,0
					C77.1,52.6,71.9,48.6,66.2,49.4"/>
			</g>
		</g>
	</g>
	<path class="st4" d="M66.2,49.4c-5.7,0.8-9.6,6-8.8,11.6c0.8,5.7,6,9.6,11.6,8.8c5.7-0.8,9.6-6,8.8-11.6l0,0
		C77.1,52.6,71.9,48.6,66.2,49.4z"/>
	<g>
		<g>
			<g>
				<path id="SVGID_5_" class="st2" d="M32,42.5c0.5-0.2,0.8-0.8,0.7-1.7c-0.2-0.6-0.4-1.3-0.7-1.9c-0.9-2.9-0.3-4.5,1.8-5.9
					c4.2-3,11.1-3.2,14-7.6c1.9-2.8,2.2-6.7,1.6-9.6C47.7,7.4,39.5,0.5,30,3.8c-2.4,0.8-5.3,2.5-4.6,6.5c0.3,1.3,0.9,2.5,1.8,3.5
					c1.6,1.6,2.3,0.8,3.8,0.1c2.2-1.1,4.4-2.6,7.5-2.9c1.5-0.1,3.4,0.1,4.6,1c1.2,0.8,1.6,2.5,0.7,3.8l-0.1,0.1
					c-1.3,1.4-5.2,2.6-7.4,3.3c-4.4,1.5-11.7,3.5-13.3,8.9c-1.4,4.4,1.7,8.8,4.2,11.4C28.2,40.5,30.6,43.1,32,42.5"/>
			</g>
			<g>
				<defs>
					<path id="SVGID_9_" d="M32,42.5c0.5-0.2,0.8-0.8,0.7-1.7c-0.2-0.6-0.4-1.3-0.7-1.9c-0.9-2.9-0.3-4.5,1.8-5.9
						c4.2-3,11.1-3.2,14-7.6c1.9-2.8,2.2-6.7,1.6-9.6C47.7,7.4,39.5,0.5,30,3.8c-2.4,0.8-5.3,2.5-4.6,6.5c0.3,1.3,0.9,2.5,1.8,3.5
						c1.6,1.6,2.3,0.8,3.8,0.1c2.2-1.1,4.4-2.6,7.5-2.9c1.5-0.1,3.4,0.1,4.6,1c1.2,0.8,1.6,2.5,0.7,3.8l-0.1,0.1
						c-1.3,1.4-5.2,2.6-7.4,3.3c-4.4,1.5-11.7,3.5-13.3,8.9c-1.4,4.4,1.7,8.8,4.2,11.4C28.2,40.5,30.6,43.1,32,42.5"/>
				</defs>
				<use xlink:href="#SVGID_9_"  style="overflow:visible;fill:#33333F;"/>
				<clipPath id="SVGID_10_">
					<use xlink:href="#SVGID_9_"  style="overflow:visible;"/>
				</clipPath>
				<g class="st6">
					<rect x="21.8" y="0.5" class="st2" width="28.2" height="42.6"/>
				</g>
				<use xlink:href="#SVGID_9_"  style="overflow:visible;fill:none;stroke:#33333F;stroke-miterlimit:10;"/>
			</g>
			<g>
				<path class="st2" d="M32,42.5c0.5-0.2,0.8-0.8,0.7-1.7c-0.2-0.6-0.4-1.3-0.7-1.9c-0.9-2.9-0.3-4.5,1.8-5.9
					c4.2-3,11.1-3.2,14-7.6c1.9-2.8,2.2-6.7,1.6-9.6C47.7,7.4,39.5,0.5,30,3.8c-2.4,0.8-5.3,2.5-4.6,6.5c0.3,1.3,0.9,2.5,1.8,3.5
					c1.6,1.6,2.3,0.8,3.8,0.1c2.2-1.1,4.4-2.6,7.5-2.9c1.5-0.1,3.4,0.1,4.6,1c1.2,0.8,1.6,2.5,0.7,3.8l-0.1,0.1
					c-1.3,1.4-5.2,2.6-7.4,3.3c-4.4,1.5-11.7,3.5-13.3,8.9c-1.4,4.4,1.7,8.8,4.2,11.4C28.2,40.5,30.6,43.1,32,42.5"/>
			</g>
		</g>
	</g>
	<path class="st2" d="M33.2,42.2c-0.2,0.5-0.5,0.8-1,1c-1.8,0.7-4.3-1.9-5.3-3l-0.1-0.1c-1.8-1.8-3.1-3.8-4.1-6.1
		c-0.8-1.9-0.9-4-0.3-5.9c1.6-5.3,8.2-7.5,12.8-9l1-0.3l0.6-0.2c2.1-0.7,5.5-1.8,6.5-3l0.1-0.1c0.2-0.4,0.4-0.8,0.3-1.2
		c-0.1-0.5-0.3-1-0.7-1.4l-0.2-0.2l0,0c-0.5-0.4-1.1-0.6-1.8-0.7c-0.8-0.2-1.6-0.2-2.4-0.2c-2.4,0.2-4.2,1.2-6,2.1
		c-0.4,0.2-0.9,0.5-1.3,0.7c-0.2,0.1-0.4,0.2-0.5,0.3c-1.4,0.7-2.3,1.2-4.1-0.5c-0.5-0.5-0.9-1.1-1.3-1.8s-0.6-1.4-0.8-2.1
		c-0.4-2.3,0.2-3.9,1.3-5.1c1-1,2.3-1.8,3.7-2.2C30.3,3,31,2.8,31.7,2.7c3.8-0.8,7.8,0,11.1,2.2c3.1,2.1,5.4,5.2,6.6,8.7
		c0.2,0.7,0.4,1.4,0.6,2.1c0.3,1.8,0.4,3.6,0.1,5.4c-0.3,1.7-0.9,3.3-1.8,4.7c-1.9,2.8-5.1,4-8.4,5.2c-2.1,0.7-4.1,1.5-5.7,2.6
		c-0.8,0.5-1.4,1.2-1.7,2.1c-0.3,0.8-0.2,1.8,0.2,3.1l0,0c0.1,0.2,0.2,0.5,0.3,0.7c0.2,0.4,0.3,0.8,0.4,1.3l0,0
		C33.5,41.2,33.4,41.7,33.2,42.2 M31.7,41.9c0.1,0,0.2-0.1,0.2-0.2C32,41.5,32,41.2,32,41c-0.1-0.3-0.2-0.6-0.3-0.9
		c-0.1-0.3-0.2-0.6-0.3-0.9l0,0c-0.5-1.6-0.5-2.8-0.2-3.9c0.4-1.2,1.2-2.1,2.2-2.8c1.8-1.3,3.9-2,6.1-2.8c3-1.1,6.1-2.2,7.7-4.6
		c0.8-1.3,1.3-2.7,1.6-4.2c0.3-1.6,0.3-3.3-0.1-4.9c-0.1-0.7-0.3-1.3-0.5-2c-1.1-3.3-3.2-6.1-6.1-8c-2.9-2-6.6-2.7-10-2
		c-0.6,0.1-1.3,0.3-1.9,0.5c-1.2,0.3-2.3,1-3.2,1.9c-0.8,0.9-1.3,2.1-0.9,3.9c0.1,0.6,0.3,1.2,0.6,1.7c0.3,0.5,0.6,1,1,1.4
		c1.1,1,1.6,0.7,2.4,0.3l0.6-0.3c0.4-0.2,0.8-0.4,1.3-0.7c1.9-1,3.8-2,6.5-2.3c0.9-0.1,1.9,0,2.8,0.2c0.8,0.2,1.6,0.5,2.3,1l0,0
		c0.1,0.1,0.2,0.2,0.3,0.3c0.6,0.6,1.1,1.4,1.1,2.3c0.1,0.8-0.1,1.5-0.6,2.2c-0.1,0.1-0.1,0.2-0.2,0.2c-1.3,1.4-4.8,2.6-7.1,3.3
		L36.6,20l-1,0.3c-4.3,1.5-10.4,3.5-11.9,8.1c-0.5,1.7-0.4,3.4,0.3,5c0.9,2.1,2.1,4,3.8,5.7l0.1,0.1C28.7,40.1,30.8,42.2,31.7,41.9z
		"/>
	<g>
		<g>
			<g>
				<path id="SVGID_7_" class="st2" d="M73.8,3c-6-1-6.3,1.1-6.7,5.9c-0.9,10.2-1.7,18.6-3,28.8c-0.3,1.9,0,3.6,1.3,4
					c0.9,0.3,2.1-0.4,3.1-3c0.4-0.9,0.7-1.8,1.1-2.8c0.8-1.8,1.5-3.6,2.3-5.4c1.5-3.6,3.1-7.2,4.7-10.7c1.5-3.2,3.7-7.2,4.7-10.5
					c0.7-2.2-0.2-3.4-1.8-4.4C77.7,4,75.8,3.3,73.8,3"/>
			</g>
			<g>
				<defs>
					<path id="SVGID_11_" d="M73.8,3c-6-1-6.3,1.1-6.7,5.9c-0.9,10.2-1.7,18.6-3,28.8c-0.3,1.9,0,3.6,1.3,4c0.9,0.3,2.1-0.4,3.1-3
						c0.4-0.9,0.7-1.8,1.1-2.8c0.8-1.8,1.5-3.6,2.3-5.4c1.5-3.6,3.1-7.2,4.7-10.7c1.5-3.2,3.7-7.2,4.7-10.5c0.7-2.2-0.2-3.4-1.8-4.4
						C77.7,4,75.8,3.3,73.8,3"/>
				</defs>
				<use xlink:href="#SVGID_11_"  style="overflow:visible;fill:#33333F;"/>
				<clipPath id="SVGID_12_">
					<use xlink:href="#SVGID_11_"  style="overflow:visible;"/>
				</clipPath>
				<g class="st7">
					<rect x="63.8" y="2" class="st2" width="18.2" height="40"/>
				</g>
				<use xlink:href="#SVGID_11_"  style="overflow:visible;fill:none;stroke:#33333F;stroke-miterlimit:10;"/>
			</g>
			<g>
				<path class="st2" d="M73.8,3c-6-1-6.3,1.1-6.7,5.9c-0.9,10.2-1.7,18.6-3,28.8c-0.3,1.9,0,3.6,1.3,4c0.9,0.3,2.1-0.4,3.1-3
					c0.4-0.9,0.7-1.8,1.1-2.8c0.8-1.8,1.5-3.6,2.3-5.4c1.5-3.6,3.1-7.2,4.7-10.7c1.5-3.2,3.7-7.2,4.7-10.5c0.7-2.2-0.2-3.4-1.8-4.4
					C77.7,4,75.8,3.3,73.8,3"/>
			</g>
		</g>
	</g>
	<path class="st2" d="M67.8,3.3c1.1-1.2,2.8-1.5,6.1-1c1.1,0.2,2.2,0.5,3.3,0.8c0.9,0.3,1.8,0.7,2.7,1.2c0.9,0.5,1.6,1.2,2,2
		c0.4,1,0.5,2.1,0.1,3.1c-0.7,2.4-2.1,5.1-3.3,7.6c-0.5,1.1-1,2.1-1.5,3c-0.8,1.7-1.6,3.5-2.4,5.3c-0.8,1.9-1.6,3.6-2.3,5.4
		l-0.6,1.5c-0.5,1.3-1.1,2.5-1.6,3.9c-0.2,0.4-0.4,0.9-0.6,1.4L69.1,39c-0.4,1-0.9,1.9-1.7,2.7c-0.6,0.7-1.5,0.9-2.3,0.7
		c-0.8-0.3-1.4-0.9-1.6-1.7c-0.3-1-0.3-2-0.2-3C64,32.6,64.5,28,65,23.3s0.9-9.3,1.4-14.4C66.6,6.3,66.8,4.5,67.8,3.3 M73.7,3.7
		c-2.7-0.4-4.1-0.3-4.8,0.6C68.2,5.1,68,6.8,67.8,9c-0.5,5.2-0.9,9.8-1.4,14.4s-1,9.3-1.7,14.4c-0.1,0.8-0.1,1.6,0.1,2.4
		c0.1,0.4,0.3,0.7,0.7,0.8c0.3,0.1,0.6,0,1-0.4c0.6-0.6,1-1.4,1.3-2.2l0.6-1.4c0.2-0.4,0.4-0.9,0.6-1.4l0,0c0.5-1.3,1.1-2.6,1.6-3.9
		l0.6-1.5c0.8-1.8,1.5-3.6,2.3-5.4s1.6-3.5,2.4-5.3c0.5-1,1-2,1.5-3.1c1.2-2.4,2.5-5.1,3.2-7.4c0.3-0.7,0.3-1.5,0-2.1
		s-0.8-1.1-1.5-1.5c-0.8-0.4-1.6-0.8-2.4-1.1C75.7,4.1,74.7,3.9,73.7,3.7L73.7,3.7z"/>
	<path class="st0" d="M30.6,52c-2.5,0.3-4.2,2.6-3.9,5.1s2.6,4.2,5.1,3.9s4.2-2.6,3.9-5.1l0,0C35.4,53.4,33.1,51.6,30.6,52z"/>
	<path class="st8" d="M30.6,52c-2.5,0.3-4.2,2.6-3.9,5.1s2.6,4.2,5.1,3.9s4.2-2.6,3.9-5.1l0,0C35.4,53.4,33.1,51.6,30.6,52z"/>
	<path class="st0" d="M66.8,52c-2.5,0.3-4.2,2.6-3.9,5.1s2.6,4.2,5.1,3.9s4.2-2.6,3.9-5.1l0,0C71.6,53.4,69.3,51.6,66.8,52z"/>
	<path class="st8" d="M66.8,52c-2.5,0.3-4.2,2.6-3.9,5.1s2.6,4.2,5.1,3.9s4.2-2.6,3.9-5.1l0,0C71.6,53.4,69.3,51.6,66.8,52z"/>
</g>
</svg>
