<svg xmlns="http://www.w3.org/2000/svg" viewBox="0 0 81 100.12"><defs><style>.cls-1{fill:#efefef;}.cls-2,.cls-3{fill:#33333f;}.cls-3{stroke:#33333f;stroke-linecap:round;stroke-linejoin:round;stroke-width:0.63px;}</style></defs><title>Слой 1 (2)</title><g id="Слой_2" data-name="Слой 2"><g id="Слой_1-2" data-name="Слой 1"><rect class="cls-1" x="0.5" y="0.5" width="80" height="99"/><path class="cls-2" d="M80,1V99H1V1H80m1-1H0V100H81V0Z"/><path class="cls-3" d="M75.34,33.73A30.26,30.26,0,0,0,65.18,11.07a30.35,30.35,0,0,1,3.33,34.4A15.89,15.89,0,0,0,62.8,32.33a16.37,16.37,0,0,1,1.88,2.83,15.93,15.93,0,0,1-2.8,18.44,30,30,0,0,1-4.26,3.09,15.91,15.91,0,0,1-17.27-2,15.93,15.93,0,0,0,8.92,5.43,30.32,30.32,0,0,1-27.42-6.8A30.34,30.34,0,0,0,44,64a19.21,19.21,0,0,0-3.41,2L21.11,80.11a2.81,2.81,0,0,1,1.78,2.35c0,1.65-4.65,4-5.21,4.43s11.47-3.13,11.47-3.13,7.8,1.22,11.48,0,5.3-5.12,5.3-5.12S60.28,78.11,54.45,66a5.43,5.43,0,0,0-3-2.67A30.33,30.33,0,0,0,75.34,33.73ZM43.57,67.94l-2.75,5.81a2.82,2.82,0,0,1-3.61,1.41l-3.46-1.41a.22.22,0,0,1,0-.39l9.62-5.64A.17.17,0,0,1,43.57,67.94Z"/><rect class="cls-3" x="0.84" y="0.81" width="9" height="99"/></g></g></svg>